<?xml version="1.0" encoding="utf-8"?>
<!-- Generator: Adobe Illustrator 26.2.1, SVG Export Plug-In . SVG Version: 6.00 Build 0)  -->
<svg version="1.1" xmlns="http://www.w3.org/2000/svg" xmlns:xlink="http://www.w3.org/1999/xlink" x="0px" y="0px"
	 viewBox="0 0 1080 1080" enable-background="new 0 0 1080 1080" xml:space="preserve">
<g id="Simpe_Leaf" display="none">
	<path display="inline" fill="#FFFFFF" stroke="#000000" stroke-width="11.8843" stroke-miterlimit="10" d="M108.205,595"/>
	<path display="inline" fill="#FFFFFF" stroke="#000000" stroke-width="11.8843" stroke-miterlimit="10" d="M540,971.44"/>
	<circle display="inline" stroke="#000000" stroke-width="11.8843" stroke-miterlimit="10" cx="1337.857" cy="277.158" r="36.749"/>
	<circle display="inline" stroke="#000000" stroke-width="11.8843" stroke-miterlimit="10" cx="1402.989" cy="380.597" r="16.962"/>
	<circle display="inline" stroke="#000000" stroke-width="11.8843" stroke-miterlimit="10" cx="1216.149" cy="177.869" r="53.269"/>
	<path display="inline" fill="#FFFFFF" stroke="#000000" stroke-width="11.8843" stroke-miterlimit="10" d="M134.132,632.811"/>
	<path display="inline" fill="#FFFFFF" stroke="#000000" stroke-width="11.8843" stroke-miterlimit="10" d="M158.438,636.811"/>
	<g display="inline">
		<path d="M923.572,584.971c-64.238,21.678-115.175,23.521-147.266,22.058c-169.052-7.71-223.811-110.138-381.048-98.567
			c-85.964,6.326-151.826,43.949-168.176,54.605c-26.489,17.264-47.931,38.467-47.931,38.467
			c-9.337,9.232-16.644,17.688-21.943,24.233c7.623,36.568,24.097,89.341,62.123,141.92c6.002,8.299,29.717,40.342,70.107,72.969
			c59.022,47.677,116.436,66.545,134.635,72.049c88.655,26.816,163.579,14.643,193.938,8.167
			c27.963-5.965,114.434-27.641,191.229-102.693c47.92-46.833,72.729-95.544,84.147-121.545
			C912.754,652.527,920.36,612.807,923.572,584.971z"/>
		<g>
			<g>
				<g>
					<path fill="#FFFFFF" d="M412.445,572.754c1.109,0.302,0.649,1.086-1.184,2.477c-27.847,25.882-34.308,72.097-25.756,109.371
						c4.858,21.307,18.28,43.997,27.904,63.913c12.535,26.114,25.744,51.678,42.694,75.531c0.299,0.407,0.547,0.792,0.738,1.155
						c0.268,0.509,0.402,0.759,0.669,1.252c0.509,0.938,0.639,1.61,0.395,2.035c-0.243,0.425-0.799,0.501-1.66,0.241
						c-13.147-4.072-26.239-8.301-39.239-12.988c-1.459-0.525-2.824-1.574-4.114-3.294c-8.975-11.578-16.173-24.094-23.337-36.725
						c-15.578-6.173-31.108-12.496-46.588-19.034c2.606,10.205,5.14,20.419,8.755,30.416c0.563,1.371,0.239,1.687-0.93,1.122
						c-9.293-4.631-18.554-9.254-27.514-14.586c-0.588-0.348-1.262-0.892-2.034-1.657c-0.775-0.767-1.472-1.573-2.101-2.458
						c-0.33-0.465-0.496-0.703-0.831-1.188c-0.239-0.346-0.488-0.74-0.743-1.183c-15.44-29.498-29.952-73.98-21.722-105.518
						c11.338-43.065,34.233-76.708,77.483-94.993c3.144-1.051,5.41-1.406,6.589-1.201
						C390.92,567.555,401.591,569.961,412.445,572.754z M332.31,690.849c7.738,2.591,11.702,3.987,19.861,6.913
						c-6.314-14.748-10.204-25.938-11.606-41.424C334.902,669.497,331.911,675.813,332.31,690.849z"/>
					<path fill="#FFFFFF" d="M546.5,622.533c-1.04,14.532-2.356,29.015-3.681,43.503c-0.146,1.233-0.764,2.122-1.735,2.796
						c-0.973,0.676-2.023,0.742-3.128,0.193c-11.57-5.377-23.521-10.349-35.688-13.84c-4.207-1.204-7.934-1.528-11.217-0.826
						c-3.287,0.703-5.804,2.07-7.542,4.108c-1.736,2.037-3.011,3.872-3.812,5.489c-0.802,1.619-1.321,3.144-1.551,4.574
						c-0.257,1.591-0.275,3.404-0.04,5.433c0.235,2.03,0.933,4.668,2.166,7.885c1.232,3.216,3.619,6.612,7.275,10.179
						c3.654,3.571,8.355,6.809,14.158,9.668c6.492,3.203,13.057,7.5,19.875,12.81c7.281,5.685,15.098,12.236,20.688,19.074
						c7.553,9.266,13.177,21.798,16.266,33.372c3.153,11.848,4.891,23.383,4.731,35.24c-0.163,12.149-0.746,34.536-11.34,41.858
						c-10.79,7.456-27.747,4.57-40.92,2.018c-11.433-2.21-22.944-5.705-34.469-9.439c-0.81-0.295-1.663-0.794-2.561-1.529
						c-0.899-0.735-1.592-1.519-2.078-2.368c-6.467-13.817-10.528-28.338-14.705-42.812c-0.433-1.616-0.388-2.761,0.135-3.422
						c0.521-0.66,1.378-0.627,2.563,0.098c10.817,6.09,21.751,12.087,33.439,15.677c4.241,1.305,7.698,1.643,10.303,0.839
						c2.603-0.805,4.267-2.293,4.948-4.504c0.681-2.207,1.073-4.301,1.14-6.25c0.067-1.948-0.068-3.774-0.42-5.452
						c-0.391-1.865-1.089-4.016-2.103-6.463c-1.015-2.448-2.665-5.645-4.985-9.65c-2.323-4.006-5.825-8.312-10.497-12.924
						c-4.673-4.605-10.084-8.852-16.065-12.564c-6.804-4.214-13.759-9.962-20.743-17.066c-7.268-7.372-14.58-15.777-20.214-24.12
						c-4.032-5.956-6.587-13.724-7.813-22.923c-1.389-10.403,0.17-20.64,2.48-30.33c4.45-18.601,17.543-35.843,36.219-43.49
						c14.211-5.827,31.207-6.597,46.296-1.603c10.216,3.392,20.587,7.434,30.757,11.378c1.006,0.391,1.895,1.094,2.656,2.123
						C546.048,620.298,546.456,621.386,546.5,622.533z"/>
					<path fill="#FFFFFF" d="M717.457,638.572c1.3,0.09,2.281,0.593,2.924,1.503c0.642,0.91,0.755,2.066,0.339,3.46
						c-4.499,15.214-9.887,30.13-15.442,44.922c-0.434,1.156-1.187,2.134-2.248,2.939c-1.061,0.805-2.126,1.167-3.204,1.085
						c-24.436-1.947-48.758-4.509-73.113-7.817c-0.96,10.544-1.934,21.082-2.481,31.667c19.034,2.13,38.017,3.741,57.09,4.85
						c0.963,0.05,1.668,0.454,2.098,1.193c0.431,0.742,0.479,1.629,0.159,2.651c-4.491,14.125-8.347,27.979-13.82,41.737
						c-0.552,1.29-1.296,2.388-2.218,3.306c-0.924,0.92-1.775,1.409-2.555,1.469c-15.362,1.221-30.828,1.552-46.285,1.253
						c-6.483,25.684-14.358,51.025-27.056,73.957c-0.435,0.778-0.975,1.393-1.615,1.869c-0.639,0.475-1.204,0.722-1.708,0.756
						c-9.11,0.615-13.497,0.708-22.061,0.563c-0.534-0.009-0.938-0.219-1.227-0.643c-0.289-0.425-0.411-0.991-0.347-1.73
						c6.881-74.123,0.771-149.493-1.804-224.266c-0.062-1.293,0.301-2.235,1.098-2.842c0.795-0.606,1.884-0.768,3.274-0.488
						C617.049,629.594,667.17,634.936,717.457,638.572z"/>
					<path fill="#FFFFFF" d="M822.958,642.464c1.253-0.005,1.544,1.091,0.89,3.256c-19.813,57.59-51.742,105.574-82.596,155.943
						c-0.162,0.259-0.369,0.538-0.626,0.84c-0.36,0.423-0.539,0.634-0.894,1.058c-0.677,0.806-1.516,1.612-2.522,2.415
						c-1.007,0.803-1.909,1.388-2.705,1.743c-11.534,5.152-23.175,10.03-34.936,14.565c-1.26,0.485-1.483,0.106-0.647-1.139
						c5.039-8.04,8.111-12.268,14.148-21.207c-13.361,4.474-26.743,8.646-40.29,12.451c-8.661,8.809-17.484,17.425-26.521,25.768
						c-1.442,1.375-2.677,2.172-3.726,2.433c-8.673,2.195-17.539,4.059-26.389,5.5c-0.619,0.103-0.919-0.058-0.906-0.486
						c0.013-0.429,0.303-1.007,0.879-1.748c0.303-0.389,0.454-0.586,0.759-0.983c0.218-0.283,0.508-0.624,0.871-1.02
						c29.488-30.847,52.668-65.288,77.377-100.569c23.772-33.81,53.328-63.73,79.144-96.556c1.601-2.045,3.298-3.05,5.073-2.992
						C793.881,642.152,808.415,642.504,822.958,642.464z M719.252,760.775c7.303-1.076,10.891-1.646,18.004-2.787
						c3.76-10.117,7.296-20.487,11.864-30.283C737.957,738.203,728.715,748.731,719.252,760.775z"/>
				</g>
			</g>
		</g>
	</g>
	<path display="inline" d="M942,420"/>
	<path display="inline" d="M792,237c3.667,0.333,7.333,0.667,11,1"/>
</g>
<g id="Leaf_Sun" display="none">
	<path display="inline" fill="#FFFFFF" stroke="#000000" stroke-width="11.8843" stroke-miterlimit="10" d="M132.511,599"/>
	<path display="inline" fill="none" stroke="#000000" stroke-width="8.2678" stroke-miterlimit="10" d="M864.704,505.58
		c0,165.908-134.49,300.425-300.398,300.425c-165.908,0-300.398-134.518-300.398-300.425s134.49-300.398,300.398-300.398
		C730.214,205.182,864.704,339.672,864.704,505.58"/>
	<path display="inline" d="M919.859,524.518c-61,20.585-109.369,22.336-139.843,20.946
		c-160.531-7.322-212.53-104.586-361.841-93.599c-81.631,6.007-144.173,41.734-159.699,51.853
		c-25.154,16.394-45.515,36.528-45.515,36.528c-8.866,8.767-15.805,16.796-20.837,23.011c7.238,34.724,22.882,84.837,58.992,134.766
		c5.7,7.881,28.219,38.309,66.573,69.291c56.047,45.273,110.567,63.19,127.848,68.417c84.186,25.464,155.333,13.904,184.162,7.755
		c26.554-5.664,108.665-26.247,181.59-97.517c45.504-44.472,69.063-90.728,79.905-115.419
		C909.586,588.668,916.81,550.95,919.859,524.518z"/>
	<g display="inline">
		<g>
			<g>
				<path fill="#FFFFFF" d="M493.546,513.115c0.893,0.475,0.298,1.131-1.698,2.143c-79.315,49.698-59.48,155.218-33.555,231.467
					c0.16,0.461,0.278,0.906,0.348,1.329c0.098,0.594,0.147,0.886,0.246,1.459c0.188,1.092,0.096,1.902-0.271,2.458
					c-0.366,0.554-0.913,0.717-1.638,0.511c-11.159-3.157-22.269-6.566-33.311-10.252c-1.251-0.417-2.274-1.469-3.063-3.363
					c-5.872-13.442-9.635-27.384-13.399-41.361c-14.428-5.594-28.712-11.439-42.946-17.637c0.115,12.604,0.246,25.186,2.261,37.805
					c0.355,1.662,0.012,2.115-1.053,1.612c-8.752-4.06-17.545-8.671-25.815-13.732c-0.574-0.348-1.238-0.967-1.993-1.898
					c-0.759-0.936-1.437-1.963-2.022-3.134c-0.307-0.615-0.46-0.93-0.763-1.576c-0.216-0.46-0.436-0.991-0.654-1.594
					c-9.504-37.763-14.764-79.721,9.02-110.207c30.722-39.245,65.507-73.962,117.444-87.23c3.021-0.553,5.076-0.51,6.088-0.05
					C475.832,503.952,484.798,508.418,493.546,513.115z M373.736,619.247c7.791,3.406,11.68,5.087,19.503,8.419
					c-2.007-12.945,0.443-25.303,2.861-37.76C388.645,599.694,381.578,609.813,373.736,619.247z"/>
				<path fill="#FFFFFF" d="M613.189,577.128c-13.115,8.9-22.599,21.805-31.505,34.503c-0.779,1.134-1.749,2.01-2.913,2.62
					c-1.169,0.613-2.077,0.663-2.723,0.137c-8.364-6.078-16.476-10.574-24.099-13.575c-3.108-1.221-6.248-1.68-9.372-1.13
					c-3.129,0.551-5.834,1.758-8.112,3.662c-2.276,1.901-4.049,3.641-5.331,5.191c-1.285,1.554-2.281,3.03-2.998,4.422
					c-0.797,1.549-1.469,3.326-1.999,5.323c-0.53,1.996-0.885,4.6-0.992,7.766c-0.106,3.166,0.684,6.504,2.401,9.964
					c1.716,3.462,4.35,6.549,7.861,9.218c3.927,2.99,7.431,6.939,10.523,11.641c3.09,4.707,5.633,10.026,7.742,15.46
					c2.107,5.438,3.44,9.851,3.178,16.998c-0.261,7.149-1.133,16.307-2.643,26.591c-2.33,15.928-4.302,35.178-15.155,46.948
					c-9.045,9.817-23.578,7.613-35.855,5.349c-9.138-1.681-19.022-4.89-27.982-8.529c-0.645-0.272-1.25-0.785-1.818-1.583
					c-0.569-0.799-0.937-1.682-1.098-2.672c-1.445-16.289-1.903-32.514-2.012-48.773c0.02-1.674,0.363-2.861,1.019-3.566
					c0.653-0.703,1.436-0.71,2.335-0.035c8.297,5.676,16.702,11.325,26.14,14.5c3.207,1.081,5.975,1.166,8.249,0.163
					c2.275-1.003,3.903-2.623,4.902-4.825c0.997-2.2,1.742-4.192,2.212-5.987c0.469-1.791,0.762-3.406,0.863-4.853
					c0.112-1.607,0.061-3.412-0.146-5.382c-0.207-1.971-0.71-4.481-1.47-7.415c-0.76-2.935-2.3-5.932-4.626-9.003
					c-2.327-3.068-4.941-5.607-9.074-8.314c-4.73-3.093-8.983-6.54-12.938-10.624c-3.961-4.082-7.297-9-9.701-15.208
					c-2.408-6.205-3.264-14.027-2.106-23.71c1.355-11.298,5.677-22.15,10.823-31.416c10.034-18.033,26.8-34.091,49.898-37.644
					c17.112-2.641,36.37,2.505,52.431,9.076c9.081,3.729,18.138,7.599,27.167,11.469c0.556,0.271,0.737,0.7,0.546,1.308
					C614.618,575.803,614.076,576.444,613.189,577.128z"/>
				<path fill="#FFFFFF" d="M726.838,591.824c0.812,0.068,1.247,0.349,1.309,0.855c0.062,0.508-0.31,1.156-1.114,1.966
					c-10.219,10.591-17.775,22.977-25.301,35.496c-0.642,1.114-1.495,2.064-2.568,2.852c-1.074,0.788-2.045,1.143-2.915,1.062
					c-18.979-1.929-37.835-4.383-56.727-7.375c-5.816,10.071-11.117,20.422-16.169,30.875c16.415,2.518,32.881,4.649,49.371,6.181
					c0.884,0.084,1.434,0.542,1.646,1.358c0.213,0.818,0.036,1.785-0.529,2.885c-6.192,11.961-12.188,24.061-19.797,35.104
					c-0.648,0.922-1.467,1.664-2.465,2.26c-1.004,0.598-1.918,0.855-2.759,0.766c-15.547-1.607-31.068-3.781-46.544-6.285
					c-10.145,23.02-14.656,47.648-22.305,71.504c-0.367,1.004-0.912,1.778-1.621,2.345c-0.707,0.564-1.377,0.828-2.007,0.798
					c-11.393-0.551-14.433-0.731-24.482-1.93c-0.626-0.075-1.079-0.436-1.365-1.097c-0.287-0.664-0.354-1.512-0.2-2.575
					c8.182-66.982,22.571-143.712,76.19-190.52c0.991-0.717,2.072-1.186,3.237-1.447c1.16-0.259,2.194-0.267,3.095-0.045
					C663.941,584.146,695.175,588.892,726.838,591.824z"/>
				<path fill="#FFFFFF" d="M796.807,593.209c0.95-0.063,1.195,0.483,0.764,1.723c-16.711,52.832-20.836,114.611-65.035,152.074
					c-0.246,0.213-0.527,0.446-0.842,0.701c-0.443,0.357-0.666,0.536-1.117,0.899c-0.858,0.69-1.782,1.395-2.753,2.104
					c-0.97,0.707-1.729,1.228-2.258,1.54c-8.108,4.876-17.421,8.93-26.43,11.763c-1.07,0.352-1.077-0.055-0.087-1.184
					c6.121-7.335,8.138-10.695,12.066-18.35c-14.21,2.279-28.254,3.632-42.661,4.368c-7.298,8.03-14.626,15.76-22.318,23.344
					c-1.359,1.344-2.653,2.054-3.844,2.141c-10.443,0.605-20.781,0.947-31.26,1.06c-0.759,0-1.197-0.284-1.328-0.854
					c-0.131-0.573,0.04-1.283,0.509-2.137c0.246-0.449,0.368-0.674,0.61-1.129c0.173-0.324,0.416-0.706,0.731-1.143
					c22.492-29.199,44.888-56.057,70.02-83.414c27.413-29.785,49.963-63.908,80.82-91.153c1.474-1.188,2.802-1.728,3.975-1.709
					C776.532,593.889,786.666,593.906,796.807,593.209z M709.108,705.649c8.191,0.016,12.201-0.067,19.947-0.449
					c4.422-10.188,7.017-21.173,9.836-31.941C729.485,684.822,719.909,695.522,709.108,705.649z"/>
			</g>
		</g>
	</g>
	<g display="inline">
		<path fill="none" d="M891.331,502.985c0,180.613-146.411,327.054-327.024,327.054c-180.613,0-327.024-146.441-327.024-327.054
			c0-180.613,146.411-327.024,327.024-327.024C744.92,175.961,891.331,322.372,891.331,502.985"/>
		<path d="M206.262,379.227l56.743-6.022l-1.812,5.28l-18.734,2.169l-7.233,21.072l13.479,13.144l-1.872,5.453l-40.981-39.899
			L206.262,379.227z M216.443,383.411l14.829,14.459l5.74-16.723L216.443,383.411z"/>
		<path d="M230.842,353.524l2.149-4.545l5.053,2.39c-1.35-2.297-2.163-4.432-2.437-6.402c-0.274-1.97-0.025-3.771,0.746-5.402
			c0.581-1.229,1.595-2.357,3.04-3.385l2.653,4.094c-0.843,0.742-1.416,1.431-1.716,2.066c-0.702,1.483-0.769,3.202-0.201,5.155
			c0.567,1.954,1.962,3.897,4.185,5.829c1.71,1.483,5.563,3.642,11.56,6.477l11.696,5.53l-2.149,4.545L230.842,353.524z"/>
		<path d="M231.691,320.165l2.402-4.296l12.397,6.931l3.809-6.812l3.713,2.076l-3.808,6.812l29.674,16.588l-2.401,4.296
			l-29.674-16.588l-3.276,5.861l-3.713-2.076l3.277-5.861L231.691,320.165z"/>
		<path d="M269.375,294.328l0.971,4.445c-3.584,0.777-6.073,2.212-7.465,4.306c-0.885,1.331-1.204,2.763-0.957,4.295
			c0.247,1.533,0.957,2.689,2.127,3.468c1.035,0.688,2.28,0.952,3.737,0.792c1.477-0.146,3.691-1.043,6.644-2.69
			c3.61-2,6.51-3.061,8.703-3.183c2.199-0.089,4.225,0.483,6.079,1.716c2.616,1.739,4.219,4.131,4.812,7.175s-0.026,5.944-1.859,8.7
			c-1.222,1.838-2.789,3.326-4.7,4.465c-1.912,1.14-3.934,1.789-6.067,1.949l-1.214-4.523c3.753-0.522,6.41-1.958,7.971-4.305
			c1.093-1.643,1.496-3.392,1.209-5.247c-0.287-1.855-1.142-3.256-2.566-4.204c-1.171-0.779-2.469-1.091-3.893-0.939
			c-1.405,0.166-3.682,1.134-6.83,2.905c-3.395,1.889-6.159,2.872-8.293,2.947c-2.133,0.077-4.127-0.502-5.981-1.735
			c-2.419-1.609-3.881-3.771-4.383-6.488c-0.501-2.716,0.085-5.335,1.763-7.857C261.133,297.39,264.531,295.391,269.375,294.328z"/>
		<path d="M312.191,237.988l27.765,26.309l-3.337,3.521l-4.772-4.521c0.402,3.222,0.179,6.2-0.667,8.933
			c-0.847,2.733-2.318,5.206-4.414,7.417c-3.724,3.93-8.328,5.936-13.814,6.017c-5.485,0.082-10.27-1.812-14.353-5.681
			c-3.998-3.788-6.087-8.432-6.269-13.932c-0.181-5.499,1.598-10.222,5.338-14.169c2.16-2.279,4.599-3.883,7.318-4.81
			c2.719-0.927,5.709-1.169,8.97-0.727l-5.104-4.836L312.191,237.988z M301.393,254.854c-1.884,1.988-3.134,4.287-3.751,6.895
			c-0.617,2.609-0.513,5.248,0.312,7.916s2.224,4.937,4.195,6.804c1.955,1.852,4.299,3.122,7.033,3.81
			c2.734,0.688,5.4,0.658,7.996-0.091c2.597-0.749,4.812-2.092,6.648-4.029c1.852-1.954,3.114-4.273,3.787-6.958
			c0.672-2.684,0.615-5.294-0.174-7.832s-2.236-4.804-4.344-6.801c-3.211-3.043-6.899-4.529-11.062-4.459
			C307.87,250.18,304.323,251.761,301.393,254.854z"/>
		<path d="M323.078,228.198l3.839-3.079l4.289,5.348c-0.106-3.279,0.366-6.174,1.417-8.685c1.051-2.511,2.674-4.646,4.868-6.405
			c2.23-1.789,4.665-2.809,7.302-3.062c2.637-0.252,5.136,0.252,7.499,1.512c2.362,1.26,5.171,3.919,8.426,7.979l12.317,15.358
			l-3.839,3.079l-11.416-14.234c-2.757-3.437-4.74-5.618-5.948-6.541c-2.028-1.618-4.073-2.418-6.134-2.404
			c-2.061,0.016-4.106,0.837-6.136,2.465c-2.323,1.863-3.787,4.299-4.393,7.309c-0.606,3.01-0.292,5.883,0.941,8.62
			c0.822,1.774,2.81,4.627,5.962,8.558l8.776,10.943l-3.84,3.08L323.078,228.198z"/>
		<path d="M385.812,166.858l27.208,45.501l-4.164,2.49l-3.374-5.643c-0.483,3.211-1.501,6.018-3.055,8.421
			c-1.553,2.403-3.637,4.387-6.252,5.951c-4.647,2.778-9.622,3.466-14.926,2.063c-5.303-1.402-9.398-4.518-12.286-9.345
			c-2.826-4.727-3.584-9.763-2.274-15.107c1.311-5.344,4.299-9.411,8.966-12.202c2.695-1.612,5.477-2.497,8.345-2.656
			c2.868-0.158,5.812,0.416,8.833,1.723l-11.187-18.708L385.812,166.858z M378.438,192.854c-2.351,1.406-4.175,3.281-5.474,5.626
			c-1.298,2.345-1.911,4.914-1.836,7.706c0.074,2.792,0.809,5.354,2.202,7.685c1.382,2.311,3.296,4.167,5.743,5.567
			s5.021,2.091,7.723,2.071c2.702-0.02,5.199-0.715,7.489-2.085c2.311-1.381,4.152-3.273,5.525-5.677
			c1.373-2.403,2.021-4.932,1.948-7.588c-0.075-2.656-0.856-5.229-2.347-7.721c-2.271-3.797-5.419-6.224-9.447-7.28
			C385.937,190.103,382.095,190.668,378.438,192.854z"/>
		<path d="M431.688,192.989l3.208-3.997c4.876,4.27,9.215,5.703,13.019,4.297c1.626-0.601,3.014-1.545,4.163-2.832
			c1.148-1.287,1.861-2.705,2.138-4.257c0.276-1.551,0.15-3.041-0.378-4.47c-0.601-1.627-1.74-3.018-3.416-4.172
			c-2.313-1.594-6.042-3.165-11.186-4.712c-5.174-1.561-8.508-2.84-10.001-3.838c-2.56-1.652-4.331-3.809-5.314-6.469
			c-0.78-2.11-0.985-4.221-0.616-6.331c0.369-2.11,1.287-4.005,2.753-5.684c1.466-1.678,3.276-2.916,5.431-3.712
			c2.286-0.845,4.633-1.069,7.042-0.672c2.408,0.397,5.282,1.702,8.625,3.916l-2.849,4.463c-2.718-1.744-4.862-2.763-6.433-3.057
			c-1.57-0.294-3.114-0.161-4.631,0.399c-1.957,0.723-3.337,1.908-4.14,3.554c-0.804,1.646-0.884,3.338-0.243,5.075
			c0.39,1.055,0.987,1.996,1.793,2.823c0.805,0.827,2.005,1.607,3.602,2.342c0.865,0.38,3.55,1.225,8.057,2.532
			c5.344,1.548,9.244,3.243,11.698,5.084c2.455,1.842,4.133,3.982,5.035,6.423c1.3,3.518,1.094,7.067-0.619,10.648
			c-1.712,3.582-4.481,6.079-8.307,7.492c-2.946,1.089-5.908,1.29-8.885,0.604S435.075,195.935,431.688,192.989z"/>
		<path d="M500.801,150.755l-3.242,3.257c-4.309-3.583-9.299-4.706-14.973-3.368c-4.534,1.069-7.956,3.416-10.264,7.039
			c-2.309,3.623-2.971,7.52-1.988,11.689c0.64,2.711,1.931,5.102,3.873,7.168c1.942,2.067,4.272,3.479,6.988,4.233
			c2.715,0.755,5.565,0.78,8.55,0.077c5.468-1.29,9.42-4.521,11.856-9.695l4.387,1.602c-1.147,3.1-3.047,5.742-5.698,7.926
			s-5.893,3.729-9.726,4.633c-5.885,1.388-11.208,0.669-15.968-2.158c-4.761-2.827-7.772-6.92-9.037-12.281
			c-0.85-3.604-0.733-7.165,0.352-10.684c1.085-3.519,3.008-6.519,5.77-9c2.762-2.481,6.104-4.185,10.028-5.11
			c2.464-0.581,4.931-0.766,7.401-0.554c2.47,0.212,4.646,0.735,6.528,1.567C497.521,147.929,499.242,149.148,500.801,150.755z"/>
		<path d="M510.181,125.784c1.109-0.158,2.112,0.102,3.01,0.779c0.898,0.677,1.426,1.572,1.585,2.686
			c0.155,1.091-0.104,2.087-0.777,2.987c-0.673,0.901-1.564,1.43-2.673,1.588c-1.086,0.154-2.078-0.106-2.976-0.784
			c-0.898-0.677-1.424-1.561-1.58-2.652c-0.158-1.114,0.099-2.121,0.772-3.021C508.215,126.466,509.095,125.938,510.181,125.784z
			 M509.981,141.721l4.873-0.694l5.39,37.869l-4.873,0.693L509.981,141.721z"/>
		<path d="M560.768,162.991l4.255,1.963c-1.221,2.738-2.679,4.973-4.375,6.703c-1.696,1.731-3.635,3.081-5.815,4.05
			c-2.183,0.969-4.679,1.527-7.49,1.672c-6.231,0.322-11.21-1.468-14.935-5.371c-3.726-3.902-5.722-8.429-5.987-13.578
			c-0.25-4.845,1.014-9.24,3.793-13.186c3.522-5.016,8.446-7.688,14.772-8.015c6.513-0.336,11.841,1.864,15.985,6.602
			c2.944,3.345,4.574,7.626,4.892,12.843l-34.372,1.776c0.322,4.432,1.929,7.996,4.817,10.692c2.888,2.695,6.348,3.939,10.379,3.73
			c1.944-0.1,3.819-0.536,5.624-1.308c1.805-0.771,3.322-1.75,4.554-2.936C558.096,167.442,559.396,165.563,560.768,162.991z
			 M560.235,152.704c-0.791-2.587-1.854-4.633-3.189-6.136s-3.059-2.682-5.17-3.535c-2.112-0.853-4.305-1.221-6.577-1.104
			c-3.75,0.194-6.91,1.566-9.48,4.116c-1.878,1.857-3.23,4.567-4.057,8.13L560.235,152.704z"/>
		<path d="M577.472,137.576l4.906,0.394l-0.548,6.833c2.172-2.458,4.502-4.241,6.989-5.347c2.486-1.105,5.132-1.545,7.936-1.32
			c2.85,0.229,5.321,1.156,7.412,2.781c2.092,1.626,3.564,3.708,4.419,6.245c0.854,2.538,1.074,6.399,0.657,11.586l-1.575,19.625
			l-4.905-0.394l1.459-18.188c0.353-4.392,0.406-7.339,0.16-8.84c-0.365-2.568-1.304-4.554-2.813-5.957
			c-1.51-1.402-3.562-2.208-6.155-2.416c-2.968-0.238-5.705,0.53-8.211,2.304s-4.248,4.08-5.229,6.917
			c-0.619,1.854-1.13,5.293-1.533,10.316l-1.122,13.982l-4.906-0.394L577.472,137.576z"/>
		<path d="M659.218,157.861l-4.328,1.544c-2.346-5.089-6.367-8.251-12.064-9.486c-4.553-0.987-8.65-0.342-12.294,1.934
			s-5.919,5.508-6.826,9.695c-0.591,2.723-0.454,5.436,0.409,8.138c0.863,2.703,2.358,4.979,4.484,6.829
			c2.126,1.85,4.688,3.1,7.685,3.75c5.491,1.19,10.449-0.025,14.875-3.646l3.271,3.335c-2.37,2.303-5.223,3.87-8.556,4.701
			c-3.334,0.83-6.925,0.829-10.772-0.005c-5.909-1.281-10.404-4.222-13.483-8.823c-3.08-4.601-4.036-9.592-2.869-14.975
			c0.784-3.619,2.423-6.783,4.917-9.492c2.494-2.708,5.521-4.588,9.083-5.639c3.561-1.05,7.312-1.149,11.251-0.295
			c2.474,0.537,4.78,1.432,6.918,2.687c2.139,1.255,3.877,2.663,5.218,4.225C657.475,153.898,658.502,155.739,659.218,157.861z"/>
		<path d="M694.863,188.937l3.143,3.477c-2.198,2.039-4.417,3.521-6.656,4.446c-2.239,0.925-4.553,1.405-6.939,1.439
			c-2.388,0.034-4.902-0.434-7.544-1.404c-5.857-2.151-9.732-5.753-11.625-10.806c-1.894-5.052-1.95-9.999-0.173-14.839
			c1.673-4.554,4.562-8.1,8.668-10.636c5.21-3.229,10.787-3.752,16.733-1.568c6.121,2.249,10.157,6.366,12.107,12.35
			c1.394,4.233,1.211,8.81-0.547,13.732l-32.307-11.868c-1.444,4.203-1.367,8.111,0.23,11.724c1.598,3.614,4.29,6.116,8.079,7.508
			c1.828,0.671,3.723,1.007,5.686,1.006c1.963,0,3.743-0.304,5.341-0.911C690.658,191.981,692.593,190.764,694.863,188.937z
			 M698.416,179.268c0.288-2.69,0.113-4.989-0.523-6.896c-0.638-1.906-1.76-3.667-3.366-5.281c-1.607-1.614-3.479-2.813-5.615-3.598
			c-3.524-1.295-6.97-1.274-10.335,0.061c-2.457,0.97-4.765,2.931-6.924,5.884L698.416,179.268z"/>
	</g>
	<g display="inline">
		<path fill="none" d="M806.138,502.503c0,133.562-108.269,241.853-241.831,241.853c-133.562,0-241.831-108.292-241.831-241.853
			s108.269-241.831,241.831-241.831C697.868,260.672,806.138,368.942,806.138,502.503"/>
		<path d="M341.746,338.56l10.624-13.621l2.661,2.076l-8.504,10.904l8.52,6.645l8.504-10.903l2.661,2.076l-8.504,10.903
			l13.343,10.407l-2.119,2.717L341.746,338.56z"/>
		<path d="M391.375,321.308l2.969-0.972c0.646,1.892,0.947,3.645,0.904,5.259c-0.043,1.615-0.378,3.154-1.004,4.617
			c-0.626,1.463-1.593,2.868-2.9,4.214c-2.898,2.984-6.143,4.368-9.733,4.151c-3.59-0.216-6.619-1.522-9.084-3.917
			c-2.32-2.253-3.697-4.974-4.129-8.163c-0.555-4.048,0.639-7.587,3.581-10.617c3.029-3.119,6.63-4.461,10.804-4.026
			c2.956,0.298,5.694,1.65,8.216,4.055l-15.986,16.46c2.168,2.019,4.569,3.031,7.203,3.038c2.634,0.007,4.888-0.955,6.763-2.886
			c0.904-0.931,1.623-1.995,2.154-3.19s0.829-2.362,0.893-3.5C392.089,324.694,391.873,323.186,391.375,321.308z M386.449,316.523
			c-1.56-0.905-3.008-1.421-4.342-1.55c-1.334-0.129-2.71,0.077-4.129,0.618c-1.419,0.542-2.657,1.356-3.714,2.445
			c-1.744,1.796-2.665,3.9-2.764,6.312c-0.075,1.759,0.494,3.696,1.707,5.812L386.449,316.523z"/>
		<path d="M401.646,277.698l22.02,27.646l-2.53,2.015l-2.73-3.428c-0.034,2.165-0.458,4.109-1.27,5.835s-2.014,3.222-3.602,4.487
			c-2.824,2.249-6.049,3.146-9.678,2.689c-3.629-0.455-6.612-2.15-8.948-5.083c-2.288-2.872-3.236-6.132-2.845-9.779
			c0.391-3.647,2.004-6.6,4.84-8.858c1.638-1.305,3.397-2.137,5.278-2.496s3.877-0.242,5.989,0.353l-9.053-11.366L401.646,277.698z
			 M399.083,295.529c-1.428,1.138-2.467,2.539-3.117,4.204c-0.65,1.665-0.826,3.417-0.529,5.255c0.297,1.838,1.01,3.465,2.138,4.881
			c1.118,1.404,2.548,2.46,4.289,3.168c1.741,0.708,3.503,0.936,5.287,0.682c1.784-0.253,3.372-0.934,4.763-2.042
			c1.404-1.118,2.453-2.532,3.146-4.242s0.897-3.438,0.613-5.187c-0.285-1.748-1.03-3.379-2.236-4.894
			c-1.837-2.307-4.134-3.63-6.889-3.971C403.793,293.045,401.305,293.759,399.083,295.529z"/>
		<path d="M442.924,283.355l3.118-0.19c0.147,1.993-0.003,3.766-0.454,5.317c-0.45,1.552-1.162,2.956-2.137,4.214
			c-0.976,1.258-2.266,2.373-3.871,3.345c-3.558,2.156-7.046,2.676-10.465,1.56s-6.02-3.144-7.801-6.084
			c-1.676-2.766-2.321-5.746-1.934-8.94c0.485-4.058,2.534-7.181,6.146-9.369c3.718-2.253,7.542-2.642,11.47-1.168
			c2.785,1.035,5.093,3.035,6.926,5.998l-19.624,11.891c1.588,2.501,3.656,4.087,6.203,4.758s4.971,0.31,7.272-1.084
			c1.11-0.673,2.074-1.521,2.89-2.543s1.398-2.076,1.748-3.161C442.76,286.812,442.931,285.298,442.924,283.355z M439.365,277.481
			c-1.281-1.269-2.551-2.135-3.81-2.597c-1.258-0.461-2.642-0.609-4.152-0.444c-1.509,0.166-2.913,0.642-4.21,1.428
			c-2.141,1.297-3.563,3.101-4.268,5.409c-0.517,1.684-0.456,3.702,0.184,6.055L439.365,277.481z"/>
		<path d="M443.024,264.16l3.013-1.468l1.632,3.35c0.255-1.758,0.723-3.207,1.402-4.346s1.559-1.972,2.641-2.499
			c0.814-0.397,1.812-0.561,2.992-0.493l-0.327,3.235c-0.748,0.035-1.333,0.154-1.754,0.359c-0.983,0.479-1.735,1.345-2.254,2.598
			s-0.604,2.845-0.253,4.777c0.271,1.484,1.375,4.214,3.312,8.189l3.778,7.753l-3.013,1.468L443.024,264.16z"/>
		<path d="M482.43,247.632l8.942,23.881l-3.029,1.134l-1.537-4.104c-0.701,2.048-1.705,3.767-3.012,5.157
			c-1.306,1.39-2.911,2.441-4.813,3.154c-3.38,1.266-6.725,1.121-10.036-0.434c-3.31-1.555-5.623-4.088-6.938-7.601
			c-1.288-3.438-1.182-6.832,0.318-10.18c1.499-3.348,3.946-5.657,7.341-6.928c1.96-0.734,3.891-0.981,5.791-0.742
			c1.9,0.24,3.762,0.969,5.586,2.188l-1.644-4.39L482.43,247.632z M471.029,254.58c-1.71,0.64-3.131,1.652-4.264,3.034
			c-1.132,1.383-1.841,2.994-2.127,4.834c-0.286,1.84-0.111,3.608,0.523,5.303c0.63,1.681,1.663,3.127,3.1,4.339
			s3.043,1.973,4.817,2.283c1.774,0.311,3.495,0.154,5.162-0.47c1.681-0.629,3.115-1.65,4.303-3.062
			c1.188-1.411,1.916-2.992,2.186-4.743c0.27-1.751,0.065-3.533-0.614-5.345c-1.034-2.762-2.809-4.73-5.324-5.906
			C476.277,253.673,473.689,253.583,471.029,254.58z"/>
		<path d="M491.546,235.369l3.171-0.842l2.43,9.152l5.029-1.335l0.728,2.741l-5.029,1.335l5.815,21.905l-3.171,0.842l-5.815-21.905
			l-4.327,1.149l-0.728-2.741l4.327-1.148L491.546,235.369z"/>
		<path d="M506.831,230.631c0.73-0.154,1.41-0.025,2.036,0.386c0.627,0.411,1.018,0.983,1.172,1.717
			c0.151,0.719,0.023,1.393-0.385,2.021c-0.408,0.629-0.978,1.02-1.708,1.174c-0.716,0.151-1.387,0.021-2.014-0.391
			c-0.626-0.411-1.016-0.975-1.167-1.694c-0.154-0.734-0.027-1.415,0.38-2.044C505.553,231.172,506.115,230.782,506.831,230.631z
			 M507.399,241.242l3.21-0.676l5.251,24.954l-3.211,0.676L507.399,241.242z"/>
		<path d="M530.56,236.623c3.898-0.491,7.306,0.514,10.224,3.013c2.653,2.281,4.201,5.18,4.645,8.699
			c0.444,3.535-0.398,6.779-2.526,9.731c-2.13,2.953-5.128,4.673-8.995,5.159c-3.883,0.488-7.221-0.434-10.015-2.768
			s-4.413-5.268-4.858-8.802c-0.441-3.503,0.341-6.688,2.347-9.555C523.586,238.941,526.646,237.115,530.56,236.623z
			 M530.949,239.81c-2.707,0.341-4.907,1.633-6.6,3.878c-1.693,2.244-2.361,4.785-2.004,7.622c0.23,1.83,0.888,3.479,1.974,4.949
			c1.085,1.47,2.437,2.54,4.055,3.21c1.617,0.67,3.328,0.892,5.133,0.665s3.407-0.866,4.808-1.916s2.445-2.422,3.133-4.115
			c0.688-1.693,0.917-3.454,0.687-5.283c-0.356-2.837-1.638-5.133-3.842-6.887C536.088,240.179,533.64,239.472,530.949,239.81z"/>
		<path d="M551.741,235.356l3.281-0.053l0.074,4.569c1.284-1.771,2.716-3.103,4.295-3.996c1.579-0.893,3.307-1.355,5.182-1.385
			c1.905-0.031,3.604,0.426,5.097,1.371c1.492,0.945,2.604,2.232,3.333,3.861s1.122,4.178,1.178,7.646l0.213,13.123l-3.28,0.053
			l-0.197-12.163c-0.047-2.937-0.201-4.896-0.46-5.876c-0.407-1.681-1.157-2.938-2.249-3.772s-2.506-1.237-4.239-1.209
			c-1.985,0.032-3.752,0.717-5.301,2.055c-1.55,1.337-2.559,2.979-3.026,4.924c-0.292,1.271-0.411,3.585-0.356,6.944l0.151,9.351
			l-3.28,0.053L551.741,235.356z"/>
		<path d="M609.531,238.32c3.873,0.658,6.844,2.606,8.914,5.842c1.88,2.951,2.522,6.174,1.928,9.671
			c-0.597,3.512-2.342,6.374-5.234,8.584s-6.26,2.989-10.102,2.336c-3.858-0.656-6.787-2.505-8.786-5.547
			c-1.999-3.042-2.7-6.319-2.104-9.832c0.592-3.481,2.263-6.304,5.013-8.467C602.186,238.521,605.643,237.659,609.531,238.32z
			 M608.981,241.483c-2.69-0.457-5.17,0.144-7.44,1.802c-2.27,1.658-3.645,3.897-4.124,6.716c-0.309,1.817-0.156,3.587,0.458,5.308
			c0.613,1.721,1.598,3.137,2.952,4.247c1.354,1.11,2.927,1.817,4.721,2.122c1.793,0.305,3.512,0.157,5.156-0.443
			c1.646-0.6,3.042-1.61,4.19-3.032c1.147-1.421,1.877-3.041,2.186-4.859c0.479-2.819-0.082-5.387-1.685-7.704
			S611.655,241.938,608.981,241.483z"/>
		<path d="M642.642,236.479l-0.832,3.101c-1.028-0.81-1.958-1.326-2.788-1.548c-0.618-0.166-1.165-0.179-1.639-0.039
			c-0.475,0.14-0.809,0.357-1.001,0.654s-0.477,1.146-0.854,2.549l-0.895,3.327l5.142,1.378l-0.734,2.739l-5.144-1.379
			l-5.887,21.886l-3.17-0.85l5.869-21.891l-3.237-0.868l0.734-2.739l3.237,0.868l1.032-3.849c0.473-1.766,0.973-2.982,1.5-3.65
			c0.526-0.667,1.24-1.127,2.142-1.379c0.9-0.252,1.901-0.23,3.003,0.065C640.147,235.13,641.32,235.671,642.642,236.479z"/>
		<path d="M676.692,250.018l0.724,38.034l-3.402-1.508l-0.358-12.568l-13.578-6.021l-9.508,8.193l-3.514-1.558l28.866-24.915
			L676.692,250.018z M673.326,256.537l-10.459,9.014l10.774,4.778L673.326,256.537z"/>
		<path d="M703.123,277.154l-2.918,0.826c-0.663-2.354-1.719-3.951-3.168-4.792c-0.922-0.535-1.888-0.689-2.897-0.462
			c-1.011,0.227-1.751,0.746-2.221,1.557c-0.416,0.716-0.541,1.556-0.376,2.519c0.157,0.977,0.844,2.414,2.06,4.312
			c1.477,2.321,2.301,4.208,2.471,5.662c0.148,1.459-0.149,2.831-0.895,4.114c-1.052,1.811-2.578,2.976-4.579,3.494
			c-2.002,0.519-3.957,0.224-5.865-0.884c-1.272-0.739-2.326-1.721-3.162-2.946c-0.835-1.226-1.35-2.545-1.543-3.958l2.961-0.992
			c0.5,2.477,1.562,4.187,3.188,5.13c1.138,0.66,2.317,0.857,3.54,0.592c1.223-0.266,2.12-0.892,2.693-1.878
			c0.471-0.811,0.626-1.687,0.467-2.629c-0.168-0.928-0.904-2.404-2.211-4.426c-1.395-2.183-2.16-3.982-2.298-5.399
			s0.167-2.767,0.912-4.051c0.973-1.675,2.352-2.735,4.14-3.18c1.786-0.444,3.553-0.16,5.3,0.854
			C700.751,271.794,702.219,273.974,703.123,277.154z"/>
		<path d="M719.498,288.122l-2.973,0.607c-0.485-2.396-1.42-4.068-2.803-5.015c-0.879-0.602-1.831-0.828-2.854-0.676
			c-1.024,0.151-1.801,0.613-2.331,1.387c-0.468,0.684-0.655,1.511-0.562,2.484c0.084,0.986,0.662,2.47,1.732,4.453
			c1.301,2.424,1.982,4.368,2.044,5.83c0.039,1.466-0.36,2.812-1.198,4.037c-1.184,1.728-2.792,2.775-4.827,3.143
			c-2.034,0.368-3.962-0.071-5.782-1.317c-1.215-0.831-2.192-1.889-2.935-3.173s-1.156-2.638-1.244-4.062l3.025-0.769
			c0.315,2.507,1.248,4.291,2.799,5.353c1.085,0.743,2.247,1.027,3.486,0.853s2.181-0.731,2.825-1.673
			c0.53-0.773,0.75-1.636,0.661-2.587c-0.098-0.938-0.723-2.464-1.875-4.579c-1.229-2.28-1.858-4.131-1.89-5.555
			c-0.032-1.423,0.371-2.747,1.21-3.972c1.095-1.598,2.549-2.553,4.364-2.863s3.556,0.105,5.222,1.246
			C717.531,282.6,718.832,284.882,719.498,288.122z"/>
		<path d="M736.895,297.482c3.005,2.531,4.578,5.716,4.722,9.555c0.124,3.497-0.957,6.601-3.242,9.313
			c-2.295,2.724-5.25,4.306-8.863,4.745c-3.614,0.439-6.911-0.597-9.892-3.108c-2.993-2.521-4.58-5.6-4.761-9.236
			s0.877-6.816,3.172-9.541c2.275-2.7,5.146-4.286,8.613-4.757C730.461,293.931,733.878,294.94,736.895,297.482z M734.816,299.93
			c-2.086-1.758-4.528-2.498-7.326-2.219c-2.798,0.278-5.117,1.511-6.96,3.698c-1.188,1.41-1.953,3.012-2.297,4.807
			c-0.344,1.794-0.213,3.514,0.392,5.157s1.603,3.051,2.993,4.223s2.947,1.917,4.67,2.233c1.722,0.316,3.438,0.153,5.148-0.489
			c1.71-0.643,3.159-1.669,4.348-3.08c1.842-2.187,2.66-4.685,2.454-7.494C738.031,303.956,736.892,301.678,734.816,299.93z"/>
		<path d="M765.452,334.066l-2.954-0.812c0.665-3.676-0.322-6.941-2.961-9.794c-2.108-2.28-4.594-3.495-7.453-3.645
			c-2.86-0.15-5.339,0.745-7.436,2.684c-1.363,1.262-2.326,2.795-2.888,4.601c-0.562,1.806-0.616,3.621-0.162,5.444
			c0.453,1.823,1.374,3.485,2.762,4.986c2.544,2.75,5.716,3.982,9.519,3.697l0.51,3.072c-2.175,0.352-4.331,0.117-6.469-0.704
			c-2.139-0.822-4.099-2.195-5.882-4.123c-2.737-2.959-4.067-6.284-3.989-9.974c0.077-3.69,1.464-6.781,4.159-9.275
			c1.812-1.676,3.917-2.777,6.315-3.303c2.397-0.526,4.77-0.395,7.116,0.394c2.346,0.788,4.432,2.168,6.257,4.141
			c1.146,1.239,2.062,2.61,2.751,4.113c0.688,1.503,1.099,2.937,1.233,4.302C766.016,331.235,765.873,332.634,765.452,334.066z"/>
		<path d="M773.689,336.271l2.025,2.581l-20.059,15.745l-2.025-2.581L773.689,336.271z M782.954,331.068
			c0.461,0.587,0.646,1.253,0.555,1.997c-0.092,0.744-0.432,1.348-1.021,1.811c-0.578,0.454-1.239,0.636-1.983,0.548
			c-0.745-0.088-1.348-0.426-1.809-1.013c-0.451-0.575-0.632-1.235-0.54-1.979c0.091-0.744,0.426-1.342,1.003-1.796
			c0.591-0.463,1.258-0.65,2.002-0.562S782.503,330.493,782.954,331.068z"/>
		<path d="M794.871,366.537l-21.315,13.996l-1.775-2.704l3.664-2.406c-2.152-0.232-4.051-0.831-5.695-1.798s-3.023-2.3-4.139-3.998
			c-1.981-3.017-2.579-6.312-1.793-9.884c0.785-3.572,2.745-6.387,5.88-8.445c3.069-2.015,6.402-2.661,9.999-1.938
			c3.596,0.723,6.389,2.6,8.379,5.63c1.148,1.75,1.816,3.578,2.002,5.484c0.187,1.906-0.113,3.883-0.899,5.932l3.919-2.573
			L794.871,366.537z M785.578,356.952c-1.002-1.526-2.303-2.689-3.901-3.488c-1.598-0.799-3.326-1.135-5.185-1.007
			c-1.857,0.127-3.543,0.688-5.056,1.682c-1.501,0.985-2.684,2.312-3.548,3.981s-1.252,3.403-1.163,5.203s0.622,3.442,1.599,4.93
			c0.985,1.5,2.297,2.674,3.937,3.521c1.639,0.847,3.342,1.208,5.108,1.084c1.767-0.124,3.459-0.717,5.077-1.779
			c2.466-1.619,3.994-3.785,4.584-6.497C787.621,361.869,787.137,359.326,785.578,356.952z"/>
		<path d="M808.851,372.709l1.523,2.906l-8.386,4.396l2.415,4.608l-2.512,1.317l-2.415-4.608l-20.073,10.523l-1.523-2.906
			l20.073-10.523l-2.079-3.964l2.512-1.317l2.079,3.965L808.851,372.709z"/>
		<path d="M806.63,389.459l1.371,2.981l-23.169,10.651l-1.371-2.981L806.63,389.459z M816.851,386.554
			c0.312,0.679,0.337,1.369,0.075,2.071c-0.262,0.703-0.733,1.21-1.414,1.524c-0.668,0.307-1.354,0.331-2.057,0.072
			c-0.704-0.258-1.212-0.727-1.523-1.406c-0.306-0.664-0.327-1.348-0.065-2.05c0.262-0.702,0.726-1.207,1.394-1.514
			c0.682-0.313,1.374-0.34,2.077-0.082C816.041,385.428,816.545,385.889,816.851,386.554z"/>
		<path d="M816.274,411.045c1.341,3.693,1.115,7.238-0.676,10.637c-1.638,3.092-4.122,5.244-7.456,6.454
			c-3.349,1.216-6.699,1.112-10.05-0.311c-3.351-1.423-5.691-3.966-7.021-7.629c-1.335-3.678-1.175-7.138,0.483-10.379
			c1.657-3.241,4.16-5.47,7.509-6.686c3.319-1.205,6.599-1.147,9.838,0.175C812.471,404.758,814.928,407.337,816.274,411.045z
			 M813.252,412.13c-0.931-2.564-2.679-4.424-5.242-5.579s-5.188-1.244-7.876-0.268c-1.733,0.629-3.196,1.636-4.39,3.02
			c-1.193,1.384-1.938,2.939-2.233,4.665s-0.134,3.443,0.487,5.153c0.62,1.709,1.598,3.131,2.932,4.265
			c1.335,1.134,2.903,1.849,4.706,2.145c1.804,0.296,3.571,0.13,5.305-0.5c2.688-0.976,4.643-2.732,5.866-5.271
			C814.029,417.223,814.178,414.68,813.252,412.13z"/>
		<path d="M822.378,431.654l0.735,3.198l-4.454,1.024c1.999,0.887,3.601,2.01,4.803,3.369c1.203,1.358,2.014,2.952,2.435,4.779
			c0.427,1.858,0.334,3.615-0.279,5.271s-1.64,3.011-3.081,4.063c-1.441,1.053-3.853,1.968-7.232,2.746l-12.791,2.942l-0.735-3.198
			l11.854-2.727c2.862-0.658,4.746-1.217,5.65-1.674c1.56-0.749,2.633-1.744,3.222-2.986c0.588-1.242,0.688-2.708,0.299-4.398
			c-0.444-1.934-1.482-3.52-3.114-4.756c-1.631-1.236-3.446-1.881-5.446-1.934c-1.304-0.021-3.593,0.345-6.866,1.098l-9.114,2.096
			l-0.735-3.198L822.378,431.654z"/>
	</g>
</g>
<g id="Layer_5" display="none">
	
		<rect x="-0.535" y="-0.48" display="inline" stroke="#D2A54B" stroke-width="30" stroke-miterlimit="10" width="1080.535" height="1080.48"/>
	<path id="nbig_circle" display="inline" fill="none" stroke="#D2A54B" stroke-width="19.0503" stroke-miterlimit="10" d="
		M947.201,812.964c-177.371,308.85-637.349,354.109-866.574-3.19c-37.484-58.427-65.835-163.276-62.904-232.631
		C35.642,152.991,455.704-39.801,764.57,137.579C1001.508,273.652,1083.273,576.026,947.201,812.964"/>
	<path display="inline" d="M244.1,264.548"/>
	<path display="inline" d="M448.584,180.349"/>
	<path display="inline" d="M596.534,292.213"/>
	<path display="inline" fill="#D2A54B" d="M204.081,253.21c47.826-51.658,156.681-93.845,156.681-93.845
		c9.693-3.693,17.895-6.47,23.711-8.354c17.863-4.734,47.524-9.868,85.073-9.958c92.222-0.22,145.197,32.041,160.172,62.152
		c10.835,21.788,5.555,29.359-4.975,42.542c-18.466,23.12-27.717,22.071-60.197,30.285c-47.043,11.897-73.364,17.332-86.506,44.059
		c-9.876,20.084-13.714,42.365,9.531,67.388c23.03,24.792,50.161,30.104,87.866,14.141c44.335-18.77,18.923-91.103,59.523-105.905
		c20.788-7.579,78.025,48.045,87.564,89.201c19.767,85.288-105.07,135.524-101.094,232.497
		c1.544,37.662,27.338,78.801,68.017,96.135c43.768,18.65,99.622-8.494,117.719-49.135c22.493-50.513-13.908-79.75-45.531-171.426
		c-22.877-66.32,26.971-141.544,69.955-155.69c37.557-12.361,88.453,65.066,110.5,128.315
		c43.612,125.117,18.702,191.04-2.769,248.754c-11.928,32.063-37.156,85.026-59.958,113.438
		c-14.139,17.618-26.591,31.513-34.906,40.191c-1.645,1.717-30.304,31.451-61.287,55.031
		c-23.777,18.096-79.977,56.203-151.541,76.408c-151.764,42.848-285.763-19.337-305.202-28.702
		c-122.42-58.974-180.568-157.084-199.929-193.942c-24.251-46.168-56.233-125.687-50.272-237.707
		C84.138,390.393,147.548,314.273,204.081,253.21z"/>
	<g display="inline">
	</g>
	<g>
		<circle display="inline" fill="#D2A54B" cx="759.854" cy="501.643" r="74.71"/>
		<circle display="inline" fill="#FFFFFF" cx="767.94" cy="517.747" r="39.093"/>
		<circle display="inline" fill="#D2A54B" cx="759.72" cy="519.953" r="22.052"/>
		<circle display="inline" fill="#FFFFFF" cx="759.62" cy="526.268" r="8.921"/>
	</g>
	<g id="Layer_6">
		
			<circle display="inline" stroke="#000000" stroke-width="11.8843" stroke-miterlimit="10" cx="1080.444" cy="-158.308" r="36.749"/>
		
			<circle display="inline" stroke="#000000" stroke-width="11.8843" stroke-miterlimit="10" cx="1145.576" cy="-54.868" r="16.962"/>
		<path display="inline" fill="none" stroke="#000000" stroke-width="5" stroke-miterlimit="10" d="M1834.507,407.648
			c0,218.467-177.097,395.6-395.564,395.6s-395.564-177.133-395.564-395.6s177.097-395.564,395.564-395.564
			S1834.507,189.18,1834.507,407.648"/>
		<g display="inline">
			<g>
				<g>
					<path fill="#FFFFFF" d="M1188.596,984.119c1.148,0.166,0.886,1.016-0.641,2.682c-56.006,74.034-2.922,171.272,48.092,237.187
						c0.315,0.405,0.581,0.803,0.796,1.196c0.301,0.551,0.45,0.822,0.745,1.353c0.562,1.012,0.758,1.832,0.603,2.484
						c-0.155,0.652-0.62,0.973-1.385,0.986c-11.783,0.204-23.587,0.145-35.402-0.203c-1.339-0.04-2.694-0.766-4.131-2.381
						c-10.335-11.231-18.93-23.668-27.536-36.163c-15.778-1.049-31.566-2.573-47.331-4.494c4.703,12.196,9.419,24.358,15.865,35.908
						c0.941,1.513,0.782,2.056-0.411,1.88c-9.81-1.38-19.786-3.246-29.481-5.671c-0.671-0.166-1.523-0.567-2.574-1.249
						c-1.055-0.684-2.064-1.48-3.037-2.444c-0.511-0.506-0.769-0.767-1.287-1.305c-0.37-0.383-0.769-0.834-1.191-1.353
						c-22.065-32.878-43.854-72.475-32.268-109.363c15.324-48.341,36.737-91.883,81.229-121.099
						c2.755-1.548,4.815-2.194,6.034-2.074C1166.427,981.198,1177.488,982.574,1188.596,984.119z M1109.548,1124.845
						c8.842,0.989,13.26,1.465,22.159,2.375c-6.192-11.919-8.481-24.453-10.725-37.272
						C1117.237,1101.582,1114.046,1113.53,1109.548,1124.845z"/>
					<path fill="#FFFFFF" d="M1346.828,1004.493c-10.308,13.533-16.32,29.67-21.9,45.532c-0.486,1.404-1.261,2.618-2.332,3.638
						c-1.073,1.022-2.04,1.391-2.904,1.1c-9.606-2.883-20.726-4.664-30.528-4.913c-3.765-0.095-7.336,0.537-10.519,2.168
						c-3.187,1.633-5.686,3.759-7.488,6.416c-1.8,2.654-3.116,4.975-3.973,6.938c-0.858,1.966-1.436,3.758-1.743,5.372
						c-0.342,1.796-0.479,3.773-0.4,5.916c0.079,2.145,0.534,4.827,1.412,7.982c0.878,3.153,2.745,6.179,5.601,9.015
						c2.856,2.839,6.549,5.009,11.026,6.467c5.015,1.635,9.815,4.37,14.305,8.009c4.487,3.643,8.476,8.095,11.896,12.833
						c3.416,4.74,5.353,9.034,6.389,16.397c1.285,9.145,2.314,18.364,3.275,27.539c1.735,16.606,5.33,36.504-1.559,51.219
						c-5.545,11.87-20.11,15.17-32.813,16.219c-9.649,0.795-19.925,0.845-29.716-0.072c-0.711-0.075-1.469-0.403-2.291-1.02
						c-0.822-0.617-1.482-1.376-1.982-2.301c-6.954-15.375-12.78-31.034-18.192-46.906c-0.518-1.636-0.557-2.893-0.129-3.779
						c0.427-0.884,1.205-1.129,2.317-0.742c10.013,2.999,20.161,5.948,30.439,6.151c3.493,0.069,6.25-0.698,8.203-2.384
						c1.953-1.687,3.089-3.78,3.443-6.256c0.353-2.471,0.529-4.663,0.492-6.576c-0.037-1.911-0.193-3.597-0.492-5.056
						c-0.332-1.621-0.878-3.387-1.619-5.272c-0.741-1.885-1.922-4.211-3.458-6.887c-1.538-2.676-3.873-5.171-7.032-7.498
						c-3.159-2.323-6.911-4.099-11.278-5.393c-4.998-1.479-10.781-3.899-16.038-6.657c-5.26-2.756-10.146-6.524-14.548-11.845
						c-4.408-5.318-7.786-12.699-9.812-22.55c-2.384-11.563-1.391-23.199,0.387-34.239c3.601-22.276,17.454-43.247,38.783-53.602
						c17.61-8.561,40.202-10.391,60.035-9.849c11.479,0.315,22.992,0.811,34.485,1.292c0.722,0.061,1.11,0.416,1.171,1.089
						C1347.802,1002.664,1347.495,1003.493,1346.828,1004.493z"/>
					<path fill="#FFFFFF" d="M1475.767,977.065c0.905-0.234,1.487-0.112,1.751,0.377c0.265,0.489,0.112,1.281-0.458,2.4
						c-7.366,14.447-12.284,30.046-17.231,45.408c-0.428,1.369-1.127,2.653-2.097,3.848c-0.97,1.195-1.932,1.911-2.883,2.145
						c-20.857,4.959-41.764,9.292-62.844,13.052c-3.567,12.24-6.72,24.593-9.785,36.958c17.967-3.309,35.812-7.013,53.622-11.154
						c0.946-0.227,1.611,0.049,1.979,0.812c0.37,0.767,0.351,1.824-0.056,3.156c-4.674,14.902-9.335,29.796-16.42,43.651
						c-0.6,1.16-1.367,2.251-2.341,3.208c-0.976,0.96-1.892,1.536-2.767,1.731c-16.294,3.519-32.62,6.703-49.072,9.38
						c-6.53,26.274-5.042,52.17-5.619,79.217c-0.058,1.135-0.355,2.093-0.87,2.891c-0.514,0.797-1.082,1.274-1.699,1.44
						c-11.173,2.996-14.147,3.748-24.233,5.644c-0.628,0.118-1.179-0.106-1.663-0.683c-0.485-0.579-0.817-1.409-0.998-2.524
						c-6.611-36.641-10.219-66.369-3.685-102.377c7.253-39.612,12.304-79.743,33.312-114.83c0.76-1.076,1.716-1.938,2.85-2.625
						c1.131-0.686,2.238-1.075,3.309-1.188C1404.332,992.782,1440.13,985.965,1475.767,977.065z"/>
					<path fill="#FFFFFF" d="M1551.526,952.521c0.988-0.413,1.45,0.052,1.412,1.472c-1.301,33.991-2.499,69.012-11.814,101.821
						c-7.984,28.275-23.653,55.789-39.025,80.303c-0.187,0.303-0.398,0.636-0.637,1.004c-0.335,0.516-0.503,0.775-0.841,1.298
						c-0.643,0.996-1.334,2.03-2.066,3.086c-0.732,1.057-1.308,1.848-1.725,2.353c-6.291,7.765-14.104,15.152-22.015,21.13
						c-0.93,0.723-1.053,0.31-0.396-1.184c3.969-9.591,5.307-13.75,8.126-22.989c-13.175,7.172-26.461,13.281-40.338,18.866
						c-5.413,10.451-10.675,20.968-16.281,31.272c-0.946,1.828-1.996,2.982-3.125,3.458c-9.946,4.006-19.85,7.682-29.981,11.158
						c-0.735,0.243-1.242,0.09-1.533-0.453c-0.293-0.546-0.333-1.327-0.121-2.35c0.111-0.538,0.166-0.807,0.272-1.35
						c0.076-0.387,0.206-0.855,0.388-1.401c7.623-19.519,14.051-39.652,23.701-58.334c9.358-18.069,22.359-33.553,33.051-50.869
						c24.481-39.513,42.072-83.254,66.951-123.179c1.161-1.753,2.38-2.793,3.647-3.21
						C1530.053,960.712,1540.905,956.987,1551.526,952.521z M1477.863,1101.45c8.253-2.81,12.257-4.279,19.902-7.346
						c4.651-11.945,6.84-24.89,8.507-37.621C1497.642,1072.25,1488.451,1087.059,1477.863,1101.45z"/>
				</g>
			</g>
		</g>
		<g display="inline">
			<g>
				<g>
					<path fill="#FFFFFF" d="M-760.499,178.507c1.559,0.15,1.513,1.376,0.215,3.705c-19.885,46.258,19.395,96.614,50.428,132.511
						c34.788,40.724,89.259,72.595,132.978,102.207c0.565,0.396,1.078,0.795,1.532,1.199c0.635,0.565,0.954,0.848,1.595,1.415
						c1.221,1.081,1.95,2.018,2.185,2.801c0.234,0.778-0.089,1.198-0.99,1.24c-13.9,0.475-27.721,0.485-41.674,0.058
						c-1.573-0.066-3.805-0.976-6.628-2.702c-15.36-9.187-30.54-18.609-45.563-28.424c-18.593-1.207-37.019-3.055-55.572-5.702
						c10.082,9.864,20.972,18.301,32.391,26.486c2.375,1.571,2.934,2.228,1.575,1.972c-11.126-2.255-21.999-4.731-33.026-7.617
						c-0.735-0.206-1.968-0.713-3.672-1.518c-1.712-0.808-3.474-1.71-5.27-2.712c-0.942-0.526-1.41-0.789-2.34-1.318
						c-0.665-0.378-1.4-0.81-2.191-1.292c-35.413-23.538-70.207-57.57-93.415-93.282c-11.417-17.44-21.885-39.099-24.617-59.117
						c-4.294-31.369,11.927-52.563,34.845-71.43c3.142-2.231,5.889-3.243,7.839-3.074
						C-793.407,175.375-776.951,176.921-760.499,178.507z M-763.712,337.666c9.742,1.122,14.817,1.595,25.29,2.324
						c-18.782-14.673-31.429-28.141-45.769-46.778C-779.477,311.255-775.311,322.275-763.712,337.666z"/>
					<path fill="#FFFFFF" d="M-544.765,189.419c0.555,13.198,2.079,26.384,4.365,39.463c0.145,1.119-0.401,2.137-1.571,3.1
						c-1.174,0.966-2.6,1.437-4.308,1.39c-18.049-0.038-36.163,0.032-54.022,1.539c-6.121,0.515-11.013,1.644-14.666,3.558
						c-3.652,1.913-5.861,4.156-6.662,6.744c-0.8,2.586-1.13,4.824-1.035,6.677c0.096,1.857,0.481,3.519,1.134,4.98
						c0.727,1.627,1.871,3.378,3.442,5.243c1.571,1.866,4.056,4.135,7.464,6.765c3.407,2.631,8.176,4.958,14.303,6.881
						c6.122,1.924,13.041,3.034,20.758,3.217c8.64,0.205,17.762,1.478,26.965,3.569c8.97,2.042,19.497,5.024,27.027,9.702
						c9.444,5.881,18.332,14.894,25.5,24.1c6.187,7.966,11.684,18.767,14.602,28.341c4.538,14.932,7.149,35.465,2.255,50.162
						c-5.304,15.963-19.592,25.27-34.235,28.594c-11.272,2.554-23.361,2.547-35.882,2.324c-0.913-0.069-2.087-0.504-3.524-1.293
						c-1.44-0.79-2.753-1.741-3.918-2.844c-12.044-12.618-23.868-25.419-34.763-39.058c-0.957-1.206-1.262-2.187-0.919-2.943
						c0.342-0.753,1.248-1.058,2.695-0.913c13.085,0.976,26.036,1.529,38.862-0.357c4.682-0.689,8.191-1.973,10.543-3.883
						c2.348-1.907,3.564-4.006,3.618-6.255c0.053-2.246-0.134-4.244-0.598-5.96c-0.463-1.712-1.089-3.218-1.887-4.498
						c-0.884-1.418-2.144-2.943-3.797-4.576c-1.654-1.633-4.138-3.619-7.512-6.023c-3.377-2.405-8.026-4.555-14.026-6.498
						c-5.995-1.939-12.77-3.322-20.028-3.916c-8.817-0.72-18.788-3.282-27.108-6.437c-10.697-4.048-21.448-9.416-31.042-15.287
						c-9.666-5.901-18.479-14.555-26.026-23.455c-8.411-9.89-15.347-21.14-19.953-33.068c-7.886-20.345-5.227-42.115,11.757-55.817
						c17.693-14.276,40.875-16.95,63.218-17.607c20.495-0.605,41.591,0.228,62.378,0.549c1.615,0.054,3.059,0.434,4.348,1.152
						C-545.731,187.495-544.983,188.374-544.765,189.419z"/>
					<path fill="#FFFFFF" d="M-352.497,131.857c1.149-0.567,2.107-0.605,2.863-0.122c0.754,0.482,1.112,1.435,1.062,2.827
						c-0.73,13.141-1.796,26.095-4.132,39.032c-0.164,0.918-0.678,1.888-1.529,2.909c-0.855,1.026-1.812,1.785-2.878,2.283
						c-25.084,11.697-50.885,21.26-77.187,29.606c0.644,9.806,0.988,14.572,1.819,24.701c21.1-7.874,41.739-16.527,62.141-26.211
						c1.009-0.491,1.804-0.589,2.368-0.292c0.562,0.297,0.754,0.918,0.577,1.856c-3.141,16.335-5.132,32.821-7.627,49.258
						c-0.265,1.605-0.778,3.101-1.523,4.498c-0.749,1.405-1.529,2.332-2.349,2.801c-16.333,9.123-32.878,17.53-49.775,25.434
						c0.228,29.411-1.95,58.389-4.141,87.586c-0.109,1.525-0.403,2.883-0.872,4.055c-0.467,1.168-0.962,1.905-1.5,2.198
						c-8.094,4.428-16.366,8.61-24.697,12.547c-0.627,0.299-1.232,0.101-1.825-0.57c-0.595-0.674-1.071-1.701-1.407-3.073
						c-17.328-69.914-44.774-138.173-57.753-208.575c-0.196-1.161,0.247-2.158,1.325-3.001c1.075-0.841,2.593-1.375,4.527-1.606
						C-458.017,172.327-404.381,156.689-352.497,131.857z"/>
					<path fill="#FFFFFF" d="M-265.752,77.377c1.01-0.793,1.74-0.007,2.17,2.202c10.066,62.178-14.493,127.362-34.723,185.089
						c-0.18,0.484-0.4,1.011-0.663,1.588c-0.368,0.806-0.553,1.211-0.925,2.025c-0.709,1.551-1.542,3.129-2.487,4.714
						c-0.945,1.585-1.75,2.751-2.397,3.47c-9.39,10.287-18.846,20.452-28.667,30.25c-1.045,1.042-1.119,0.343-0.265-2.001
						c4.017-11.536,7.898-23.136,11.52-34.835c-11.724,10.84-23.958,21.083-36.554,30.769c-6.999,14.653-13.862,29.341-20.5,44.122
						c-1.183,2.767-2.253,4.555-3.197,5.28c-7.924,6.134-16.172,11.99-24.56,17.424c-0.598,0.39-0.952,0.18-1.075-0.606
						c-0.122-0.79-0.013-1.92,0.339-3.385c0.184-0.768,0.276-1.151,0.46-1.913c0.131-0.545,0.319-1.202,0.565-1.966
						c17.556-47.549,34.029-96.919,53.619-143.908c15.582-37.176,38.705-68.204,49.471-108.038c0.636-2.621,1.66-4.467,3.088-5.397
						C-288.686,94.329-277.007,86.214-265.752,77.377z M-324.803,224.749c7.144-5.176,10.594-7.787,17.319-13.05
						c2.352-13.448,4.54-26.932,6.744-40.42C-310.727,188.476-317.551,206.307-324.803,224.749z"/>
				</g>
			</g>
		</g>
	</g>
</g>
<g id="Layer_7">
	
		<rect x="-0.902" y="0.041" fill="none" stroke="#D2A54B" stroke-width="30" stroke-miterlimit="10" width="1080.535" height="1080.48"/>
	<g>
	</g>
	<g>
		<path fill="#D2A54B" d="M124.965,109.644c0-34.4-3.583-37.983-37.983-37.983H61.899v-6.45h225.748
			c116.099,0,194.215,68.799,194.215,171.999c0,103.199-78.116,171.282-194.215,171.282H180.865v127.565
			c0,34.399,4.3,37.982,38.7,37.982h25.083v6.45H61.899v-6.45h25.083c34.4,0,37.983-3.583,37.983-37.982V109.644z M274.747,397.024
			c97.466,0,149.782-60.916,149.782-159.815S372.213,78.828,274.747,78.828H165.098l3.583,0.717
			c8.6,8.6,12.183,20.783,12.183,37.266v283.081L274.747,397.024z"/>
		<path fill="#D2A54B" d="M512.678,574.039h18.633c28.251,0,38.699-10.255,38.699-37.982V109.644c0-34.4-4.3-37.983-38.699-37.983
			h-18.633v-6.45h109.649l196.364,361.196c7.884,13.617,12.9,23.65,12.9,26.517h4.3c-0.717-7.883-0.717-17.917-0.717-30.1V116.811
			c0-32.959-12.384-45.149-45.866-45.149h-32.25v-6.45h147.633v6.45h-11.467c-33.482,0-45.866,12.19-45.866,45.149v477.295h-5.733
			c0-7.166-10.75-27.232-20.066-44.433L599.394,146.193c-7.284-13.229-14.333-27.233-14.333-27.95h-3.583
			c0.717,7.883,0.717,18.633,0.717,30.816v386.997c0,27.728,10.448,37.982,38.699,37.982h18.634v6.45H512.678V574.039z"/>
	</g>
	<path stroke="#D2A54B" stroke-width="30" stroke-miterlimit="10" d="M581,264"/>
	<g>
		<path fill="#D2A54B" d="M241.212,543.218c0-34.4-3.583-37.983-37.983-37.983h-25.083v-6.45h225.748
			c116.099,0,194.215,68.799,194.215,171.999c0,103.198-78.116,171.281-194.215,171.281H297.111V969.63
			c0,34.399,4.3,37.982,38.7,37.982h25.083v6.45H178.146v-6.45h25.083c34.4,0,37.983-3.583,37.983-37.982V543.218z M390.994,830.598
			c97.466,0,149.782-60.916,149.782-159.814c0-98.899-52.316-158.382-149.782-158.382H281.345l3.583,0.717
			c8.6,8.6,12.183,20.783,12.183,37.266v283.081L390.994,830.598z"/>
		<path fill="#D2A54B" d="M628.925,1007.612h18.634c28.251,0,38.699-10.255,38.699-37.982V543.218c0-34.4-4.3-37.983-38.699-37.983
			h-18.634v-6.45h109.649L934.938,859.98c7.884,13.617,12.9,23.65,12.9,26.517h4.3c-0.717-7.883-0.717-17.916-0.717-30.1V550.384
			c0-32.958-12.384-45.149-45.866-45.149h-32.25v-6.45h147.633v6.45h-11.467c-33.482,0-45.866,12.19-45.866,45.149v477.295h-5.733
			c0-7.166-10.75-27.232-20.066-44.433L715.641,579.767c-7.284-13.229-14.333-27.232-14.333-27.949h-3.583
			c0.717,7.883,0.717,18.633,0.717,30.816V969.63c0,27.728,10.448,37.982,38.699,37.982h18.634v6.45h-126.85V1007.612z"/>
	</g>
</g>
<g id="Fisheye" display="none">
	<path display="inline" fill="none" stroke="#000000" stroke-width="8.7386" stroke-miterlimit="10" d="M857.504,539.986
		c0,175.355-142.148,317.533-317.504,317.533c-175.355,0-317.504-142.178-317.504-317.533
		c0-175.355,142.148-317.504,317.504-317.504C715.355,222.482,857.504,364.63,857.504,539.986"/>
	<g display="inline">
		<g>
			<path d="M351.432,288.817c1.494-1.195,1.738-0.97,0.809,1.161c-16.476,39.567-16.451,87.895-22.109,129.934
				c-4.653,34.572,0.974,63.61,7.619,97.981c7.405,38.298,16.237,75.043,29.867,111.517
				c23.139,61.921,29.296,128.989,53.728,190.702c0.459,1.061,0.859,2.067,1.195,3.015c0.471,1.327,0.707,1.963,1.181,3.176
				c0.902,2.306,1.327,3.881,1.266,4.915c-0.061,1.026-0.594,1.275-1.605,0.905c-17.232-6.178-33.078-15.167-48.594-24.756
				c-1.891-1.227-3.814-3.53-5.724-7.69c-15.058-31.551-22.335-67.344-30.404-101.135c-19.802-14.054-37.988-29.442-55.684-46.054
				c0.747,22.654,1.39,45.395,3.632,67.965c0.394,3.018-0.23,3.228-1.869,1.013c-14.738-20.573-27.315-41.704-38.433-64.441
				c-0.81-1.728-1.612-3.664-2.407-5.776c-0.798-2.121-1.418-3.943-1.861-5.528c-0.233-0.834-0.348-1.254-0.577-2.103
				c-0.164-0.607-0.311-1.232-0.436-1.872C226.496,536.625,257.829,429.601,303,335.831c1.811-3.414,3.55-5.892,5.07-7.464
				C321.874,314.437,336.11,301.082,351.432,288.817z M281.986,550.357c8.027,4.32,12.146,6.623,20.739,11.128
				c-7.268-26.463-13.707-53.196-18.198-80.284C282.257,504.235,281.596,527.22,281.986,550.357z"/>
			<path d="M537.055,229.935c6.671,49.047,2.648,100.524,1.63,149.817c-0.137,4.434-0.843,8.025-2.13,10.834
				c-1.292,2.82-2.71,3.608-4.23,2.448c-15.71-9.898-31.842-18.901-50.608-20.209c-6.085-0.424-11.561,1.929-16.325,6.909
				c-4.772,4.989-8.398,11.205-10.827,18.085c-2.429,6.881-4.167,12.225-5.212,16.38c-1.048,4.164-1.666,7.519-1.862,10.259
				c-0.218,3.047-0.051,6.015,0.542,8.57c0.593,2.554,1.968,4.18,4.309,8.721c2.341,4.541,6.401,10.059,12.226,16.244
				c5.828,6.189,13.477,11.834,21.436,16.648c11.398,6.893,20.003,15.148,28.66,25.504c11.195,13.392,19.774,29.772,27.616,45.783
				c9.559,19.517,16.346,41.1,21.286,62.149c4.614,19.659,6.894,39.223,8.213,59.458c3.415,52.415,7.409,121.982-21.196,165.196
				c-14.056,21.235-32.063,26.178-57.727,19.996c-14.692-3.539-29.664-6.975-44.493-10.47c-1.211-0.302-2.548-0.817-4.022-1.811
				c-1.476-0.995-2.447-2.261-3.327-3.971c-17.882-41.268-18.091-94.656-23.126-138.692c-0.526-4.805-0.354-8.344,0.483-10.765
				c0.834-2.41,2.108-2.979,3.818-1.777c14.837,9.759,31.449,19.855,48.961,22.645c6.105,0.972,11.14-0.67,14.772-5.309
				c3.629-4.636,5.84-10.644,6.631-17.571c0.791-6.92,1.206-12.718,1.21-17.538c0.004-4.808-0.235-8.756-0.745-11.993
				c-0.566-3.589-1.528-7.245-2.854-10.61c-1.326-3.365-3.406-6.234-6.009-10.687c-2.605-4.455-6.899-9.749-12.838-15.576
				c-5.935-5.823-13.053-11.311-20.983-15.275c-10.957-5.477-19.477-14.668-26.902-23.851
				c-10.716-13.254-18.305-30.026-25.064-45.887c-8.701-20.417-14.089-42.635-17.964-64.26c-3.023-16.869-3.996-31.104-1.639-48.176
				c6.965-50.45,13.818-111.688,43.192-153.016c16.214-22.812,37.617-36.099,65.887-42.175c14.648-3.148,28.94-3.675,43.873-3.031
				c1.005,0.134,2.037,0.689,3.086,1.927C535.85,226.092,536.618,227.735,537.055,229.935z"/>
			<path d="M675.713,251.141c0.913,0.441,2.231,1.166,3.895,2.375c1.667,1.212,3.322,2.681,4.907,4.672
				c26.154,34.839,28.066,92.217,33.667,133.571c0.552,4.173,0.712,7.694,0.492,10.637c-0.219,2.942-0.786,4.326-1.684,4.188
				c-24.495-3.772-49.421-5.355-74.043-8.099c2.534,26.457,7.115,52.449,10.036,78.774c22.71,1.929,45.357,2.548,68.114,3.512
				c0.959,0.041,1.897,0.78,2.801,2.248c0.907,1.472,1.54,3.292,1.897,5.507c5.281,32.407,7.227,65.341,7.705,98.135
				c0.009,2.592-0.332,4.821-1.014,6.719c-0.686,1.906-1.527,2.966-2.521,3.21c-23.122,5.64-46.66,8.22-70.328,10.259
				c-0.602,32.643-3.385,65.291-4.242,97.994c-1.207,46.087-4.512,93.782-31.414,132.737c-2.556,3.12-5.222,5.496-7.769,7.348
				c-2.537,1.845-4.365,2.818-5.379,3.058c-14.195,2.975-28.199,5.351-42.731,5.805c-1.013,0.032-1.256-0.659-0.869-2.215
				c0.389-1.564,1.33-3.733,2.741-6.769c22.638-60.244,10.922-128.323,9.535-191.095c-0.87-39.357-1.591-78.513-4.01-117.846
				c-2.328-37.848-6.722-75.552-8.954-113.366c-2.039-34.554-2.687-69.184-4.423-103.753c-1.539-30.648-0.764-64.707-10.919-93.926
				c-0.761-1.929-1.041-3.089-0.82-3.844c0.22-0.752,0.904-0.993,2.11-0.948C595.332,222.698,636.68,233.313,675.713,251.141z"/>
			<path d="M766.558,318.232c1.486,1.553,3.373,4.04,5.493,7.704c29.492,57.536,43.745,125.961,56.437,189.315
				c12.63,63.04,9.513,116.891-15.739,177.163c-0.511,1.145-1.088,2.37-1.739,3.686c-0.911,1.841-1.373,2.771-2.311,4.646
				c-1.785,3.567-3.702,7.088-5.699,10.493c-1.992,3.396-3.52,5.749-4.507,6.966c-12.142,14.966-24.218,29.996-36.799,44.599
				c-1.138,1.311,0.029-0.864,3.089-6.41c14.531-28.159,24.349-56.359,29.921-87.553c-10.372,10.656-20.739,20.735-32.295,30.103
				c-8.248,36.759-20.324,69.918-43.763,99.799c-4.402,5.164-7.515,7.884-8.721,8.567c-12.777,7.163-26.107,13.18-39.43,19.237
				c-1.201,0.538-1.103,0.17,0.181-1.211c1.291-1.388,3.33-3.403,5.974-6.18c1.391-1.46,2.064-2.208,3.371-3.738
				c0.934-1.093,2.071-2.428,3.368-4.005c39.416-54.078,38.328-115.544,51.401-178.168c7.271-34.833,12.108-68.551,13.236-104.232
				c0.969-30.665-0.296-60.898-1.973-91.504c-2.643-48.215,1.909-112.459-22.619-155.719c-1.489-2.481-1.551-2.84-0.022-1.71
				C738.781,291.906,752.902,304.48,766.558,318.232z M782.547,567.957c6.198-3.08,9.109-4.673,15.164-7.902
				c-1.746-21.901-4.866-43.31-9.383-64.805C787,519.556,785.284,543.765,782.547,567.957z"/>
		</g>
	</g>
	<path display="inline" fill="none" stroke="#000000" stroke-width="10.8277" stroke-miterlimit="10" d="M932.312,541.408
		c0,217.276-176.131,393.444-393.408,393.444c-217.277,0-393.408-176.167-393.408-393.444S321.628,148,538.904,148
		C756.181,148,932.312,324.131,932.312,541.408"/>
</g>
<g id="Bubble_OG" display="none">
	<path display="inline" fill="#FFFFFF" stroke="#000000" stroke-width="11.8843" stroke-miterlimit="10" d="M1001.795,527.98
		c0,238.478-193.318,431.835-431.795,431.835c-238.478,0-431.795-193.357-431.795-431.835S331.522,96.185,570,96.185
		C808.478,96.185,1001.795,289.502,1001.795,527.98"/>
	<circle display="inline" stroke="#000000" stroke-width="11.8843" stroke-miterlimit="10" cx="869.857" cy="348.533" r="36.749"/>
	<circle display="inline" stroke="#000000" stroke-width="11.8843" stroke-miterlimit="10" cx="934.989" cy="451.972" r="16.962"/>
	<circle display="inline" stroke="#000000" stroke-width="11.8843" stroke-miterlimit="10" cx="748.149" cy="249.244" r="53.269"/>
	<path display="inline" d="M958.86,578.51c-64.238,21.678-115.175,23.521-147.266,22.058
		C642.542,592.857,587.783,490.429,430.545,502c-85.964,6.326-151.826,43.949-168.176,54.605
		c-26.489,17.264-47.931,38.467-47.931,38.467c-9.337,9.232-16.644,17.688-21.943,24.233c7.623,36.568,24.097,89.34,62.123,141.92
		c6.002,8.299,29.717,40.343,70.107,72.969c59.022,47.677,116.436,66.545,134.635,72.049
		c88.655,26.816,163.579,14.643,193.938,8.167c27.963-5.965,114.434-27.641,191.229-102.693
		c47.92-46.833,72.729-95.544,84.147-121.545C948.042,646.065,955.649,606.345,958.86,578.51z"/>
	<g display="inline">
		<g>
			<g>
				<path fill="#FFFFFF" d="M1588.059,576.484c0.963,0.456,0.372,1.177-1.67,2.343c-80.629,55.934-54.106,166.904-23.006,245.777
					c0.192,0.481,0.337,0.943,0.432,1.387c0.133,0.622,0.2,0.928,0.333,1.529c0.253,1.143,0.198,2.003-0.157,2.608
					c-0.356,0.605-0.92,0.803-1.69,0.623c-11.852-2.766-23.666-5.8-35.421-9.134c-1.331-0.377-2.457-1.435-3.382-3.397
					c-6.974-13.767-11.578-28.497-16.187-42.996c-15.422-5.027-30.732-10.544-45.904-16.475c0.786,13.301,1.587,26.58,4.359,39.807
					c0.459,1.739,0.124,2.234-1.017,1.755c-9.374-3.852-18.819-8.284-27.741-13.219c-0.619-0.339-1.346-0.958-2.186-1.906
					c-0.843-0.95-1.607-2.001-2.281-3.208c-0.354-0.634-0.53-0.96-0.882-1.627c-0.251-0.476-0.51-1.026-0.769-1.651
					c-11.97-39.165-19.659-83.459,3.455-116.655c30.002-42.899,64.647-81.405,118.495-97.825c3.142-0.733,5.305-0.79,6.392-0.356
					C1568.943,567.878,1578.581,571.956,1588.059,576.484z M1468.104,694.305c8.345,3.208,12.51,4.788,20.884,7.915
					c-2.794-13.556-0.89-26.711,0.975-39.966C1482.675,672.945,1475.813,683.967,1468.104,694.305z"/>
				<path fill="#FFFFFF" d="M1717.144,637.827c-13.316,10.048-22.607,24.13-31.301,37.966c-0.759,1.237-1.733,2.21-2.926,2.913
					c-1.195,0.705-2.144,0.803-2.851,0.284c-7.743-5.309-17.271-10.134-26.018-13.07c-3.318-1.112-6.649-1.453-9.899-0.714
					c-3.256,0.741-6.033,2.152-8.324,4.273c-2.289,2.119-4.059,4.045-5.324,5.744c-1.266,1.701-2.235,3.308-2.915,4.813
					c-0.755,1.674-1.367,3.582-1.819,5.712c-0.452,2.132-0.688,4.894-0.634,8.237c0.055,3.341,1.059,6.823,3.041,10.38
					c1.981,3.561,4.907,6.685,8.731,9.319c4.277,2.95,8.157,6.934,11.648,11.735c3.487,4.805,6.431,10.281,8.924,15.904
					c2.491,5.626,4.123,10.216,4.21,17.761c0.108,9.379-0.483,18.933-1.413,28.185c-1.699,16.977-2.703,37.603-13.513,50.329
					c-8.612,10.148-24.167,9.701-37.32,7.501c-9.852-1.644-20.185-4.184-29.759-7.568c-0.69-0.253-1.349-0.765-1.986-1.579
					s-1.067-1.727-1.288-2.766c-2.348-17.124-3.663-34.227-4.618-51.382c-0.065-1.768,0.232-3.036,0.884-3.814
					c0.649-0.777,1.468-0.825,2.446-0.157c8.991,5.567,18.095,11.099,28.153,13.968c3.418,0.977,6.323,0.923,8.658-0.252
					c2.334-1.175,3.958-2.967,4.892-5.343c0.933-2.372,1.612-4.511,2.012-6.427c0.4-1.914,0.624-3.634,0.655-5.165
					c0.035-1.702-0.113-3.602-0.431-5.67c-0.319-2.069-0.976-4.691-1.924-7.748c-0.949-3.057-2.719-6.14-5.318-9.261
					c-2.599-3.118-5.473-5.661-9.949-8.306c-5.121-3.022-9.761-6.442-14.123-10.549c-4.367-4.105-8.124-9.122-10.971-15.547
					c-2.851-6.423-4.549-14.977-3.456-24.897c1.337-12.09,4.646-22.548,9.693-33.666c9.075-19.942,27.256-37.466,50.381-42.182
					c17.833-3.647,38.338,0.789,55.561,6.889c9.74,3.462,19.454,7.084,29.151,10.684c0.6,0.256,0.812,0.695,0.641,1.349
					C1718.576,636.36,1718.041,637.061,1717.144,637.827z"/>
				<path fill="#FFFFFF" d="M1837.428,647.374c0.859,0.029,1.331,0.301,1.421,0.832c0.091,0.532-0.266,1.232-1.072,2.129
					c-10.253,11.369-17.856,25.199-24.802,38.708c-0.617,1.205-1.467,2.252-2.555,3.138c-1.087,0.886-2.093,1.312-3.013,1.272
					c-20.046-0.872-40.027-2.608-60.016-4.797c-5.594,10.913-10.633,22.096-15.405,33.375c17.404,1.715,34.77,3.026,52.199,3.928
					c0.932,0.042,1.534,0.497,1.799,1.345c0.266,0.852,0.128,1.88-0.409,3.068c-5.902,12.93-11.591,25.999-19.029,38.04
					c-0.634,1.005-1.456,1.831-2.477,2.513c-1.025,0.683-1.971,1.001-2.858,0.951c-16.413-0.877-32.824-2.356-49.203-4.188
					c-9.657,24.792-12.282,51.238-19.802,76.597c-0.335,1.081-0.868,1.925-1.583,2.561c-0.714,0.634-1.404,0.946-2.066,0.947
					c-11.98,0.014-15.178-0.017-25.779-0.758c-0.659-0.046-1.153-0.403-1.486-1.086c-0.335-0.685-0.448-1.577-0.34-2.708
					c5.232-70.914,16.175-153.007,70.231-204.813c1.006-0.807,2.117-1.357,3.328-1.692c1.207-0.334,2.294-0.396,3.251-0.209
					C1770.867,642.587,1803.963,645.953,1837.428,647.374z"/>
				<path fill="#FFFFFF" d="M1911.163,645.118c0.996-0.117,1.282,0.446,0.89,1.774c-15.033,56.488-16.285,121.78-60.819,163.644
					c-0.25,0.24-0.533,0.5-0.853,0.786c-0.448,0.4-0.674,0.602-1.13,1.008c-0.868,0.773-1.803,1.566-2.789,2.364
					c-0.987,0.799-1.757,1.387-2.299,1.745c-8.565,5.766-17.764,9.808-27.198,13.82c-1.108,0.429-1.135,0-0.151-1.244
					c6.07-8.062,8.024-11.713,11.773-19.994c-14.603,3.552-29.621,5.55-44.613,6.881c-7.149,8.874-14.451,17.605-22.28,25.808
					c-1.361,1.491-2.684,2.308-3.931,2.463c-10.934,1.191-21.77,2.099-32.763,2.772c-0.798,0.04-1.271-0.235-1.436-0.831
					c-0.165-0.598-0.022-1.355,0.427-2.281c0.236-0.487,0.353-0.731,0.584-1.224c0.165-0.352,0.403-0.768,0.711-1.245
					c22.164-31.936,44.256-61.52,69.35-91.573c27.432-32.772,49.236-70.061,80.406-100.36c1.492-1.329,2.863-1.969,4.098-2.012
					C1889.846,646.915,1900.518,646.392,1911.163,645.118z M1824.547,768.199c8.613-0.42,12.826-0.721,20.952-1.537
					c4.137-10.947,6.491-22.65,8.745-34.175C1845.309,745.238,1835.522,757.319,1824.547,768.199z"/>
			</g>
		</g>
	</g>
	<g display="inline">
		<g>
			<g>
				<path fill="#FFFFFF" d="M437.811,573.498c1.185,0.455,0.715,1.38-1.215,2.853c-32.674,28.88-36.46,77.241-28.825,119.122
					c4.249,23.444,18.673,48.465,28.352,70.722c12.191,28.214,24.685,56.285,41.445,82.464c0.298,0.448,0.544,0.869,0.732,1.261
					c0.263,0.548,0.394,0.818,0.658,1.349c0.503,1.012,0.619,1.705,0.355,2.105c-0.264,0.399-0.844,0.407-1.735,0.043
					c-13.672-5.739-27.169-11.777-40.625-18.123c-1.511-0.725-2.925-1.941-4.25-3.801c-9.178-12.533-16.416-26.024-23.628-39.616
					c-16.347-7.987-32.641-16.116-48.958-24.242c2.668,10.281,5.249,20.575,9.127,30.588c0.599,1.375,0.273,1.627-0.943,0.936
					c-9.601-5.515-19.194-11.039-28.689-16.764c-0.615-0.369-1.323-0.937-2.133-1.727c-0.814-0.794-1.548-1.623-2.211-2.53
					c-0.348-0.476-0.523-0.719-0.875-1.215c-0.252-0.355-0.514-0.756-0.784-1.208c-17.566-32.851-29.997-75.04-23.155-110.387
					c10.037-51.324,33.551-83.108,85.662-101.976c3.329-1.022,5.723-1.34,6.979-1.022
					C414.876,565.326,426.455,569.132,437.811,573.498z M349.779,700.61c8.356,3.134,12.643,4.833,21.472,8.394
					c-7.991-18.787-10.993-33.009-12.518-52.997C353.153,671.224,349.047,683.988,349.779,700.61z"/>
				<path fill="#FFFFFF" d="M580.316,637.807c-0.979,15.145-2.548,30.226-3.975,45.307c-0.156,1.283-0.805,2.225-1.828,2.89
					c-1.026,0.669-2.129,0.698-3.291,0.082c-12.336-5.956-24.793-11.835-37.658-16.283c-4.465-1.541-8.42-2.163-11.92-1.707
					c-3.501,0.455-6.195,1.643-8.062,3.599c-1.865,1.954-3.24,3.746-4.107,5.357c-0.869,1.615-1.43,3.162-1.685,4.638
					c-0.285,1.643-0.319,3.543-0.079,5.703c0.24,2.16,0.974,5.007,2.275,8.528c1.3,3.522,3.838,7.336,7.729,11.402
					c3.886,4.066,8.884,7.821,15.049,11.167c6.897,3.75,13.844,8.614,21.048,14.478c7.634,6.228,15.82,13.208,21.784,20.476
					c7.968,9.738,13.211,22.869,16.352,35.45c3.168,12.727,4.175,26.15,2.797,38.689c-1.644,15.013-4.221,38.283-17.316,47.247
					c-12.041,8.239-29.249,5.014-43.146,1.489c-11.934-3.02-23.8-7.691-35.733-12.638c-0.839-0.384-1.718-0.979-2.638-1.818
					c-0.923-0.841-1.627-1.71-2.108-2.627c-6.297-14.997-9.572-30.81-12.942-46.464c-0.348-1.759-0.215-2.986,0.398-3.664
					c0.611-0.676,1.538-0.592,2.764,0.251c11.166,7.25,22.399,14.06,34.813,18.499c4.475,1.603,8.152,2.022,11.036,1.179
					c2.879-0.842,4.82-2.478,5.762-4.921c0.942-2.441,1.56-4.762,1.811-6.925c0.251-2.159,0.265-4.181,0.031-6.041
					c-0.259-2.061-0.824-4.442-1.718-7.146c-0.894-2.702-2.422-6.233-4.629-10.639c-2.21-4.407-5.695-9.135-10.456-14.21
					c-4.762-5.065-10.38-9.78-16.649-13.867c-7.726-5.028-15.489-12.076-21.677-18.812c-7.611-8.263-15.555-17.464-21.23-26.35
					c-4.883-7.626-7.932-19.541-8.553-28.706c-0.807-11.903-0.005-21.935,2.925-33.206c4.891-18.759,19.677-34.804,39.255-40.826
					c15.657-4.825,33.454-3.95,49.131,2.073c10.688,4.119,21.609,8.496,32.392,12.747c1.056,0.41,1.985,1.139,2.783,2.209
					C579.846,635.481,580.273,636.612,580.316,637.807z"/>
				<path fill="#FFFFFF" d="M759.79,650.582c1.365,0.046,2.396,0.527,3.069,1.443c0.672,0.914,0.791,2.104,0.353,3.564
					c-5.051,16.306-10.541,32.395-16.251,48.425c-0.457,1.271-1.249,2.357-2.362,3.261c-1.117,0.907-2.235,1.331-3.368,1.271
					c-25.669-1.466-51.206-3.647-76.801-6.704c-1.022,11.202-1.928,22.37-2.648,33.6c19.986,2.15,39.957,3.82,59.991,4.676
					c1.013,0.044,1.753,0.474,2.205,1.27c0.452,0.797,0.502,1.758,0.165,2.863c-4.584,14.767-8.395,29.549-13.763,44.025
					c-0.538,1.36-1.288,2.52-2.232,3.491c-0.949,0.975-1.836,1.497-2.664,1.564c-16.353,1.388-32.76,1.68-49.213,1.575
					c-7.151,28.184-16.398,55.404-29.578,80.933c-0.435,0.84-1.012,1.514-1.734,2.053c-0.719,0.536-1.382,0.833-2.002,0.906
					c-9.204,1.129-18.635,1.797-27.952,1.966c-0.697,0.016-1.232-0.19-1.611-0.635c-0.38-0.447-0.533-1.054-0.437-1.863
					c5.331-41.444,12.699-82.101,8.605-124.62c-3.729-38.483-2.753-76.632-4.049-115.131c-0.062-1.342,0.32-2.321,1.159-2.958
					c0.837-0.635,1.981-0.81,3.438-0.532C654.408,644.496,707.008,648.585,759.79,650.582z"/>
				<path fill="#FFFFFF" d="M870.647,650.298c1.317-0.061,1.623,1.044,0.937,3.31c-20.099,59.736-49.747,113.32-79.417,167.315
					c-0.151,0.26-0.351,0.541-0.605,0.847c-0.355,0.428-0.532,0.643-0.885,1.073c-0.673,0.82-1.531,1.647-2.571,2.473
					c-1.04,0.827-1.986,1.433-2.827,1.806c-12.324,5.417-24.654,10.764-37.087,15.843c-1.346,0.549-1.624,0.196-0.831-1.052
					c4.732-8.047,7.427-12.189,12.741-21.034c-14.358,5.24-28.832,10.136-43.436,14.569c-8.669,9.284-17.52,18.365-26.611,27.158
					c-1.445,1.445-2.743,2.323-3.914,2.674c-9.946,2.855-19.87,5.649-29.993,7.857c-0.718,0.159-1.106,0.031-1.167-0.39
					c-0.06-0.423,0.186-1.018,0.749-1.803c0.296-0.412,0.444-0.62,0.743-1.042c0.214-0.301,0.505-0.665,0.875-1.092
					c30.14-33.046,53.508-69.819,78.862-107.151c25.236-37.022,55.721-71.009,83.26-106.924c1.682-2.178,3.466-3.276,5.332-3.29
					C840.093,651.259,855.373,650.995,870.647,650.298z M762.509,781.803c7.672-1.15,11.435-1.757,18.893-2.964
					c3.573-10.947,7.303-21.444,11.63-32.105C781.855,758.098,772.121,769.067,762.509,781.803z"/>
			</g>
		</g>
	</g>
</g>
</svg>
